<svg width="129" height="32" viewBox="0 0 129 32" fill="none" xmlns="http://www.w3.org/2000/svg">
<rect y="-3.05176e-05" width="129" height="32" rx="4" fill="white"/>
<path d="M13.7031 21V9.62497H17.4219C18.6562 9.62497 19.5833 9.88018 20.2031 10.3906C20.8281 10.901 21.1406 11.6562 21.1406 12.6562C21.1406 13.1875 20.9896 13.6588 20.6875 14.0703C20.3854 14.4765 19.974 14.7916 19.4531 15.0156C20.0677 15.1875 20.5521 15.5156 20.9062 16C21.2656 16.4791 21.4453 17.0521 21.4453 17.7187C21.4453 18.7396 21.1146 19.5416 20.4531 20.125C19.7917 20.7083 18.8568 21 17.6484 21H13.7031ZM15.2031 15.6797V19.7734H17.6797C18.3776 19.7734 18.9271 19.5937 19.3281 19.2343C19.7344 18.8698 19.9375 18.3698 19.9375 17.7343C19.9375 16.3646 19.1927 15.6797 17.7031 15.6797H15.2031ZM15.2031 14.4765H17.4688C18.125 14.4765 18.6484 14.3125 19.0391 13.9843C19.4349 13.6562 19.6328 13.2109 19.6328 12.6484C19.6328 12.0234 19.4505 11.5703 19.0859 11.289C18.7214 11.0026 18.1667 10.8593 17.4219 10.8593H15.2031V14.4765ZM28.6641 21C28.5807 20.8333 28.513 20.5364 28.4609 20.1093C27.7891 20.8073 26.987 21.1562 26.0547 21.1562C25.2214 21.1562 24.5365 20.9218 24 20.4531C23.4688 19.9791 23.2031 19.3802 23.2031 18.6562C23.2031 17.776 23.5365 17.0937 24.2031 16.6093C24.875 16.1198 25.8177 15.875 27.0312 15.875H28.4375V15.2109C28.4375 14.7057 28.2865 14.3047 27.9844 14.0078C27.6823 13.7057 27.237 13.5547 26.6484 13.5547C26.1328 13.5547 25.7005 13.6849 25.3516 13.9453C25.0026 14.2057 24.8281 14.5208 24.8281 14.8906H23.375C23.375 14.4687 23.5234 14.0625 23.8203 13.6718C24.1224 13.276 24.5286 12.9635 25.0391 12.7343C25.5547 12.5052 26.1198 12.3906 26.7344 12.3906C27.7083 12.3906 28.4714 12.6354 29.0234 13.125C29.5755 13.6093 29.862 14.2786 29.8828 15.1328V19.0234C29.8828 19.7994 29.9818 20.4166 30.1797 20.875V21H28.6641ZM26.2656 19.8984C26.7188 19.8984 27.1484 19.7812 27.5547 19.5468C27.9609 19.3125 28.2552 19.0078 28.4375 18.6328V16.8984H27.3047C25.5339 16.8984 24.6484 17.4166 24.6484 18.4531C24.6484 18.9062 24.7995 19.2604 25.1016 19.5156C25.4036 19.7708 25.7917 19.8984 26.2656 19.8984ZM34.8125 19.039L36.9062 12.5468H38.3828L35.3516 21H34.25L31.1875 12.5468H32.6641L34.8125 19.039ZM41.3438 21H39.8984V12.5468H41.3438V21ZM39.7812 10.3047C39.7812 10.0703 39.8516 9.87237 39.9922 9.71091C40.138 9.54945 40.3516 9.46872 40.6328 9.46872C40.9141 9.46872 41.1276 9.54945 41.2734 9.71091C41.4193 9.87237 41.4922 10.0703 41.4922 10.3047C41.4922 10.539 41.4193 10.7343 41.2734 10.8906C41.1276 11.0468 40.9141 11.125 40.6328 11.125C40.3516 11.125 40.138 11.0468 39.9922 10.8906C39.8516 10.7343 39.7812 10.539 39.7812 10.3047ZM45.0312 12.5468L45.0781 13.6093C45.724 12.7968 46.5677 12.3906 47.6094 12.3906C49.3958 12.3906 50.2969 13.3984 50.3125 15.414V21H48.8672V15.4062C48.862 14.7968 48.7214 14.3463 48.4453 14.0547C48.1745 13.763 47.75 13.6172 47.1719 13.6172C46.7031 13.6172 46.2917 13.7422 45.9375 13.9922C45.5833 14.2422 45.3073 14.5703 45.1094 14.9765V21H43.6641V12.5468H45.0312ZM63.1172 15.7422H58.1875V19.7734H63.9141V21H56.6875V9.62497H63.8359V10.8593H58.1875V14.5156H63.1172V15.7422ZM65.0469 16.7031C65.0469 15.4062 65.3542 14.3646 65.9688 13.5781C66.5833 12.7864 67.388 12.3906 68.3828 12.3906C69.3724 12.3906 70.1562 12.7291 70.7344 13.4062V8.99997H72.1797V21H70.8516L70.7812 20.0937C70.2031 20.8021 69.3984 21.1562 68.3672 21.1562C67.388 21.1562 66.5885 20.7552 65.9688 19.9531C65.3542 19.151 65.0469 18.1041 65.0469 16.8125V16.7031ZM66.4922 16.8672C66.4922 17.8255 66.6901 18.5755 67.0859 19.1172C67.4818 19.6588 68.0286 19.9297 68.7266 19.9297C69.6432 19.9297 70.3125 19.5182 70.7344 18.6953V14.8125C70.3021 14.0156 69.638 13.6172 68.7422 13.6172C68.0339 13.6172 67.4818 13.8906 67.0859 14.4375C66.6901 14.9843 66.4922 15.7942 66.4922 16.8672ZM81.9141 19.0078L83.5391 12.5468H84.9844L82.5234 21H81.3516L79.2969 14.5937L77.2969 21H76.125L73.6719 12.5468H75.1094L76.7734 18.875L78.7422 12.5468H79.9062L81.9141 19.0078ZM91.6797 21C91.5964 20.8333 91.5286 20.5364 91.4766 20.1093C90.8047 20.8073 90.0026 21.1562 89.0703 21.1562C88.237 21.1562 87.5521 20.9218 87.0156 20.4531C86.4844 19.9791 86.2188 19.3802 86.2188 18.6562C86.2188 17.776 86.5521 17.0937 87.2188 16.6093C87.8906 16.1198 88.8333 15.875 90.0469 15.875H91.4531V15.2109C91.4531 14.7057 91.3021 14.3047 91 14.0078C90.6979 13.7057 90.2526 13.5547 89.6641 13.5547C89.1484 13.5547 88.7161 13.6849 88.3672 13.9453C88.0182 14.2057 87.8438 14.5208 87.8438 14.8906H86.3906C86.3906 14.4687 86.5391 14.0625 86.8359 13.6718C87.138 13.276 87.5443 12.9635 88.0547 12.7343C88.5703 12.5052 89.1354 12.3906 89.75 12.3906C90.724 12.3906 91.487 12.6354 92.0391 13.125C92.5911 13.6093 92.8776 14.2786 92.8984 15.1328V19.0234C92.8984 19.7994 92.9974 20.4166 93.1953 20.875V21H91.6797ZM89.2812 19.8984C89.7344 19.8984 90.1641 19.7812 90.5703 19.5468C90.9766 19.3125 91.2708 19.0078 91.4531 18.6328V16.8984H90.3203C88.5495 16.8984 87.6641 17.4166 87.6641 18.4531C87.6641 18.9062 87.8151 19.2604 88.1172 19.5156C88.4193 19.7708 88.8073 19.8984 89.2812 19.8984ZM99.25 13.8437C99.0312 13.8073 98.7943 13.789 98.5391 13.789C97.5911 13.789 96.9479 14.1927 96.6094 15V21H95.1641V12.5468H96.5703L96.5938 13.5234C97.0677 12.7682 97.7396 12.3906 98.6094 12.3906C98.8906 12.3906 99.1042 12.4271 99.25 12.5V13.8437ZM100.078 16.7031C100.078 15.4062 100.385 14.3646 101 13.5781C101.615 12.7864 102.419 12.3906 103.414 12.3906C104.404 12.3906 105.188 12.7291 105.766 13.4062V8.99997H107.211V21H105.883L105.812 20.0937C105.234 20.8021 104.43 21.1562 103.398 21.1562C102.419 21.1562 101.62 20.7552 101 19.9531C100.385 19.151 100.078 18.1041 100.078 16.8125V16.7031ZM101.523 16.8672C101.523 17.8255 101.721 18.5755 102.117 19.1172C102.513 19.6588 103.06 19.9297 103.758 19.9297C104.674 19.9297 105.344 19.5182 105.766 18.6953V14.8125C105.333 14.0156 104.669 13.6172 103.773 13.6172C103.065 13.6172 102.513 13.8906 102.117 14.4375C101.721 14.9843 101.523 15.7942 101.523 16.8672ZM114.383 18.7578C114.383 18.3672 114.234 18.0651 113.938 17.8515C113.646 17.6328 113.133 17.4453 112.398 17.289C111.669 17.1328 111.089 16.9453 110.656 16.7265C110.229 16.5078 109.911 16.2474 109.703 15.9453C109.5 15.6432 109.398 15.2838 109.398 14.8672C109.398 14.1744 109.69 13.5885 110.273 13.1093C110.862 12.6302 111.612 12.3906 112.523 12.3906C113.482 12.3906 114.258 12.638 114.852 13.1328C115.451 13.6276 115.75 14.2604 115.75 15.0312H114.297C114.297 14.6354 114.128 14.2942 113.789 14.0078C113.456 13.7213 113.034 13.5781 112.523 13.5781C111.997 13.5781 111.586 13.6927 111.289 13.9218C110.992 14.151 110.844 14.4505 110.844 14.8203C110.844 15.1692 110.982 15.4323 111.258 15.6093C111.534 15.7864 112.031 15.9557 112.75 16.1172C113.474 16.2786 114.06 16.4713 114.508 16.6953C114.956 16.9192 115.286 17.1901 115.5 17.5078C115.719 17.8203 115.828 18.2031 115.828 18.6562C115.828 19.4114 115.526 20.0182 114.922 20.4765C114.318 20.9297 113.534 21.1562 112.57 21.1562C111.893 21.1562 111.294 21.0364 110.773 20.7968C110.253 20.5573 109.844 20.2239 109.547 19.7968C109.255 19.3646 109.109 18.8984 109.109 18.3984H110.555C110.581 18.8828 110.773 19.2682 111.133 19.5547C111.497 19.8359 111.977 19.9765 112.57 19.9765C113.117 19.9765 113.555 19.8672 113.883 19.6484C114.216 19.4244 114.383 19.1276 114.383 18.7578Z" fill="#3B3B3B"/>
</svg>
